<svg width="72" height="38" viewBox="0 0 72 38" fill="none" xmlns="http://www.w3.org/2000/svg">
<rect x="7.5" y="14" width="12" height="12" fill="#50CFB1"/>
<rect y="2" width="12" height="12" fill="#50CFB1"/>
<rect y="14" width="12" height="12" fill="#50CFB1"/>
<rect x="54" y="20" width="12" height="12" fill="#50CFB1"/>
<rect x="42" y="8" width="12" height="12" fill="#50CFB1"/>
<rect x="18" y="2" width="12" height="12" fill="#50CFB1"/>
<rect x="60" y="26" width="12" height="12" fill="#50CFB1"/>
<rect x="18" y="26" width="12" height="12" fill="#50CFB1"/>
<rect y="26" width="12" height="12" fill="#50CFB1"/>
<path d="M36 26H48V38H36V26Z" fill="#50CFB1"/>
<rect x="36" y="2" width="12" height="12" fill="#50CFB1"/>
<rect x="36" y="14" width="12" height="12" fill="#50CFB1"/>
<rect x="60" y="14" width="12" height="12" fill="#50CFB1"/>
<rect x="60" y="2" width="12" height="12" fill="#50CFB1"/>
<rect x="7.5" y="12" width="12" height="12" fill="#64FFDA"/>
<rect width="12" height="12" fill="white"/>
<rect y="12" width="12" height="12" fill="white"/>
<rect x="54" y="18" width="12" height="12" fill="#64FFDA"/>
<rect x="42" y="6" width="12" height="12" fill="#64FFDA"/>
<rect x="18" width="12" height="12" fill="white"/>
<rect x="60" y="24" width="12" height="12" fill="white"/>
<rect x="18" y="24" width="12" height="12" fill="white"/>
<rect y="24" width="12" height="12" fill="white"/>
<path d="M36 24H48V36H36V24Z" fill="white"/>
<rect x="36" width="12" height="12" fill="white"/>
<rect x="36" y="12" width="12" height="12" fill="white"/>
<rect x="60" y="12" width="12" height="12" fill="white"/>
<rect x="60" width="12" height="12" fill="white"/>
</svg>
